Simulation
nRows=40
nColumns=15
endheader
time  TH_x TH_y TH_z SC_y  SC_z  SC_x  AC_y  AC_z  AC_x  GH_y  GH_z  GH_yy  EL_x  PS_y
1.55  0.000000  0.000000  0.000000  -33.93408577987747  6.701356959042077  25.830698914665174  56.76511918335685  5.444746823916907  -6.07684391299521  18.58619657961758  56.33375082079817  -17.713255811542393  17.926742447353014  0.000000
1.581  0.000000  0.000000  0.000000  -34.30823665929066  6.989499188018932  25.98131187274896  56.88217998939477  5.732976219475256  -5.489796116449211  18.187531146006652  56.99895537208886  -17.57987258651861  17.91257413817556  0.000000
1.612  0.000000  0.000000  0.000000  -34.6514606679871  7.245237117911267  26.067073029462495  56.98307885327148  6.025038430099526  -4.938363990838609  17.839941061051356  57.57902515795177  -17.462947543946054  17.90689202067094  0.000000
1.643  0.000000  0.000000  0.000000  -34.95996552478097  7.463651420955363  26.0987659419604  57.068931303728675  6.310927293113396  -4.438040011756252  17.54825835901268  58.062907902887204  -17.3630242175834  17.911003434847352  0.000000
1.674  0.000000  0.000000  0.000000  -35.231667006146  7.642335110439784  26.086168363524433  57.13970068017685  6.581138073564185  -4.0018362466823065  17.318823316244124  58.439265812035856  -17.28233493629517  17.924616281415922  0.000000
1.705  0.000000  0.000000  0.000000  -35.4646497778528  7.7809606485559835  26.037411315637645  57.194121956131795  6.826567195492879  -3.64042899600143  17.158893341919146  58.69731775882205  -17.2243124583697  17.945740045077894  0.000000
1.736  0.000000  0.000000  0.000000  -35.65550035934399  7.880077809290737  25.958375894930498  57.230229826629156  7.038533914738072  -3.362545479120893  17.075278068573112  58.827904651380216  -17.193531430139473  17.971210067471755  0.000000
1.767  0.000000  0.000000  0.000000  -35.798505120381506  7.939854138593593  25.85263137315921  57.24615052490412  7.209129109823576  -3.175315828094082  17.072958967231326  58.824188375463905  -17.196066614112475  17.99742492071404  0.000000
1.798  0.000000  0.000000  0.000000  -35.886135146043515  7.959256296036974  25.72212475580255  57.240883511838895  7.331816360570551  -3.084347443405723  17.154279142091912  58.68188395618322  -17.239794562769493  18.021040383141422  0.000000
1.829  0.000000  0.000000  0.000000  -35.91067229060514  7.935868396593795  25.568470728179054  57.21481879652003  7.402039763726083  -3.0936342064231703  17.318849805741753  58.39900533633502  -17.334316526233156  18.039541891622296  0.000000
1.8599999999999999  0.000000  0.000000  0.000000  -35.86614467883522  7.866282378660433  25.394146120866743  57.169863337940626  7.417436104524204  -3.205405161363534  17.563963854456546  57.97565202099054  -17.490046350081357  18.05170745562581  0.000000
1.891  0.000000  0.000000  0.000000  -35.7498990050553  7.747055324396087  25.202938027748896  57.108915810166735  7.377399060859998  -3.4200772811719578  17.885330317590636  57.41411732323814  -17.716241595060186  18.05807105453768  0.000000
1.922  0.000000  0.000000  0.000000  -35.56330802350246  7.5759496332176655  24.999355182416647  57.03486200186281  7.282172598793498  -3.736240048869122  18.277874356188253  56.71944741943937  -18.018319027939576  18.061307655603503  0.000000
1.953  0.000000  0.000000  0.000000  -35.31169879058959  7.352997920294229  24.78741756970223  56.9494937645422  7.13198584179893  -4.1505901912161365  18.73639189527782  55.90000800809238  -18.395581434658407  18.06631104585159  0.000000
1.984  0.000000  0.000000  0.000000  -35.00364211700029  7.08090102092831  24.56941363454269  56.853049968240995  6.9267398621592005  -4.6576791094866445  19.255734319703343  54.967737785367326  -18.840322678677722  18.079637371167998  0.000000
2.015  0.000000  0.000000  0.000000  -34.64999089856942  6.7645799200894245  24.345139642502055  56.74466793365071  6.666316752772154  -5.249440794815952  19.83043933971177  53.93786364853982  -19.339049025390988  18.10813457209085  0.000000
2.046  0.000000  0.000000  0.000000  -34.26297676269941  6.410189503285247  24.111581236778598  56.6236460583007  6.351292373473296  -5.914500475543713  20.454011576888135  52.82828096304159  -19.875198997084464  18.157142387161734  0.000000
2.077  0.000000  0.000000  0.000000  -33.8555297167663  6.024183149668582  23.862778086212302  56.49085836392398  5.983601931822443  -6.637408932334812  21.118061324199857  51.658874407279654  -20.431907421196524  18.228934240579456  0.000000
2.108  0.000000  0.000000  0.000000  -33.44076009393992  5.61280797217176  23.589694871279285  56.349624736601754  5.567035952214165  -7.398187982601933  21.811495429009295  50.45068334907873  -20.993492187272583  18.32215114254329  0.000000
2.139  0.000000  0.000000  0.000000  -33.031422104233464  5.181933506298258  23.280238110545334  56.205216922288415  5.107828565856183  -8.172806322387801  22.52032602376781  49.22450121685467  -21.545437013086644  18.432393942821978  0.000000
2.17  0.000000  0.000000  0.000000  -32.63905142594769  4.736878118114684  22.91988909059542  56.06335457184538  4.615383430181238  -8.934902701288346  23.228434407358222  47.99885491519233  -22.073851892208296  18.553408591808868  0.000000
2.201  0.000000  0.000000  0.000000  -32.27306466327439  4.282182158884086  22.493306944647728  55.92832955046285  4.102613519293834  -9.658270277881762  23.919319382333406  46.78783478415129  -22.56516286847544  18.67838819365232  0.000000
2.232  0.000000  0.000000  0.000000  -31.9400934380351  3.821558005743943  21.986565040987614  55.801814593104666  3.5855360019125304  -10.319481978101374  24.57826646116967  45.599648592434285  -23.006550759887713  18.8010579358294  0.000000
2.263  0.000000  0.000000  0.000000  -31.643858646971925  3.358260454557023  21.389381711189408  55.682809724945685  3.0819466496806185  -10.89977602013699  25.193908751185237  44.43625445745804  -23.386627307084726  18.916386252454974  0.000000
2.294  0.000000  0.000000  0.000000  -31.385361620905808  2.895674118256461  20.6965528155307  55.568525394178  2.6095527908212044  -11.38601607869928  25.758954681192076  43.29404583286238  -23.69628611078918  19.02097954143668  0.000000
2.325  0.000000  0.000000  0.000000  -31.163324098988024  2.437733080382032  19.90838209706309  55.45547628852266  2.184156987021285  -11.770648792360598  26.27025514318602  42.16486899845174  -23.929509900080898  19.113169492929003  0.000000
2.356  0.000000  0.000000  0.000000  -30.974647208247795  1.988952722597008  19.030167421691974  55.34036787911923  1.8182331462946593  -12.051172614568376  26.72834705621244  41.037310036375494  -24.084230061841872  19.19284962556925  0.000000
2.387  0.000000  0.000000  0.000000  -30.814944730157915  1.5541446578080358  18.07142291179464  55.220536448379036  1.5201594089881765  -12.229358964061648  27.136726895658402  39.89776294141515  -24.16274244571829  19.2611379030363  0.000000
2.418  0.000000  0.000000  0.000000  -30.678958987795294  1.1379765851012902  17.044935494929675  55.09422420649021  1.2941488604972329  -12.310510798339156  27.501213721343028  38.731628018664495  -24.171841009925057  19.319918092318225  0.000000
2.449  0.000000  0.000000  0.000000  -30.560998324962117  0.7445481642496057  15.966007059370618  54.960706039550985  1.1408550156609407  -12.302667277672596  27.82961138241999  37.524377875932316  -24.122607982424114  19.37135550169755  0.000000
2.48  0.000000  0.000000  0.000000  -30.455270586339747  0.37710034483096  14.851724357433673  54.820450327747906  1.0582513851064275  -12.21591194088932  28.131602717506883  36.262811913674284  -24.02987561746839  19.417375211207734  0.000000
2.511  0.000000  0.000000  0.000000  -30.35629737350035  0.037900696671777825  13.720265190580403  54.67496962530141  1.0425014663018477  -12.06160553195994  28.418604049127655  34.93616957682129  -23.91110506711059  19.459373121716997  0.000000
2.542  0.000000  0.000000  0.000000  -30.25928449382204  -0.2714501078860918  12.589978289480774  54.5265132032966  1.0885626464735416  -11.851684558966072  28.703461531784193  33.53726063781781  -23.784769156366647  19.498127943868226  0.000000
2.573  0.000000  0.000000  0.000000  -30.160408578517522  -0.5495280466233169  11.478509898277606  54.37762222803888  1.1903827746920463  -11.598089954356105  28.99987172983205  32.06327403840528  -23.66838411676358  19.534061467537626  0.000000
2.604  0.000000  0.000000  0.000000  -30.05671860756186  -0.7949744538206961  10.401845568583365  54.23055622934181  1.3408779735269085  -11.312304280505181  29.321871319120508  30.516087636512605  -23.5768300438755  19.567445948284497  0.000000
2.635  0.000000  0.000000  0.000000  -29.94642758051836  -1.007057099304807  9.37322683760331  54.08670603041595  1.5322073062771544  -11.004915272976305  29.68315966960359  28.902097669052697  -23.521314581256274  19.59878776660839  0.000000
2.666  0.000000  0.000000  0.000000  -29.829546314738145  -1.185745633423942  8.402840864797403  53.946566698489626  1.7562476817395491  -10.68558393462166  30.096712390076917  27.231836235833484  -23.509286896832446  19.629343110813828  0.000000
2.697  0.000000  0.000000  0.000000  -29.70756998301735  -1.3314348304180965  7.4976516828691215  53.810245198978855  2.0052187466757334  -10.36314842118834  30.57462711268958  25.518982901792587  -23.545304881069463  19.66142586092835  0.000000
2.7279999999999998  0.000000  0.000000  0.000000  -29.583361423094402  -1.4460279614601448  6.661164603335674  53.677545625922306  2.2718104235029397  -10.045393436402057  31.128213329931217  23.77855174318542  -23.6318298470801  19.698772938591617  0.000000
2.759  0.000000  0.000000  0.000000  -29.460643658885505  -1.5333086593632077  5.894338094726006  53.547668462404594  2.5486700996121527  -9.738999921076559  31.768172863422162  22.0248263710834  -23.770323110547885  19.746848383615344  0.000000
